# xmcd
#
# Track frame offsets:
#	150
#	13002
#	23832
#	32980
#	47020
#	59632
#	71422
#	84307
#	96902
#	105615
#	116685
#	128147
#	140347
#	152125
#	163947
#	177162
#	189357
#	199845
#	212822
#	225395
#	236527
#	247360
#	259590
#	269760
#	279612
#
# Disc length: 3853 seconds
#
# Revision: 0
# Processed by: cddbd v1.5.2PL0 Copyright (c) Steve Scherf et al.
# Submitted via: EasyCDDAExtractor 11.6.0.1
#
DISCID=6f0f0b19
DTITLE=Various Artist - Boppin' The Blues
DYEAR=1995
DGENRE=Blues
TTITLE0=Rocket 88 - Jackie Brenston
TTITLE1=Hey Little Girl - Billy "The Kid" Emerson
TTITLE2=I'm Gonna Shake It - Rosco Gordon
TTITLE3=The Hucklebuck - Earl Hooker
TTITLE4=Tiger Man - Rufus Thomas
TTITLE5=Love My Baby - Little Junior's Blue Flames
TTITLE6=Gee I Wish - Billy "Red" Love
TTITLE7=Go Ahead On - Guitar Red
TTITLE8=Mean Mean Woman - Elven Parr and The In Groove Boys
TTITLE9=Baby Tell Me Your Name - Lewis-Johnson Combo
TTITLE10=Rhumba Chillen - Albert Williams
TTITLE11=Walked All Night - Charlie Booker
TTITLE12=My Be Bop Gal - Doctor Ross
TTITLE13=Bop With Me Baby - Rosco Gordon
TTITLE14=Somebody Told Me - Little Milton
TTITLE15=Baker Shop Boogie - Willie Nix
TTITLE16=Ridin' The Boogie - Lou Sargent
TTITLE17=Boogie In The Park - Joe Hill Louis
TTITLE18=Boogie In The Park - Joe Hill Louis
TTITLE19=T.Model Boogie - Rosco Gordon
TTITLE20=Shim Sham Shimmy - Billy Emerson
TTITLE21=Everything's Alright - Frank Frost
TTITLE22=Jack's Jump - Frank Frost
TTITLE23=You Gotta Learn To Rock'n'Roll - Frank Ballard
TTITLE24=After The Hop - Bill Pinkey
EXTD=
EXTT0=
EXTT1=
EXTT2=
EXTT3=
EXTT4=
EXTT5=
EXTT6=
EXTT7=
EXTT8=
EXTT9=
EXTT10=
EXTT11=
EXTT12=
EXTT13=
EXTT14=
EXTT15=
EXTT16=
EXTT17=
EXTT18=
EXTT19=
EXTT20=
EXTT21=
EXTT22=
EXTT23=
EXTT24=
PLAYORDER=
